<mxfile host="app.diagrams.net" agent="Mozilla/5.0 (Windows NT 10.0; Win64; x64) AppleWebKit/537.36 (KHTML, like Gecko) Chrome/139.0.0.0 Safari/537.36" version="28.1.2">
  <diagram name="Page-1" id="isAr8ZQglfMhSS4OHlN7">
    <mxGraphModel dx="822" dy="417" grid="1" gridSize="10" guides="1" tooltips="1" connect="1" arrows="1" fold="1" page="1" pageScale="1" pageWidth="1400" pageHeight="850" math="0" shadow="0">
      <root>
        <mxCell id="0" />
        <mxCell id="1" parent="0" />
        <mxCell id="FxuVqMgDtMSCdMD-zuut-1" value="" style="swimlane;startSize=0;fillColor=#fff2cc;strokeColor=#0000FF;" vertex="1" parent="1">
          <mxGeometry x="420" y="180" width="642" height="777" as="geometry">
            <mxRectangle x="180" y="160" width="50" height="40" as="alternateBounds" />
          </mxGeometry>
        </mxCell>
        <mxCell id="FxuVqMgDtMSCdMD-zuut-4" style="edgeStyle=none;curved=0;rounded=1;orthogonalLoop=1;jettySize=auto;html=1;entryX=-0.026;entryY=0.622;entryDx=0;entryDy=0;fontSize=12;startSize=8;endSize=8;dashed=1;entryPerimeter=0;exitX=0.316;exitY=0.951;exitDx=0;exitDy=0;exitPerimeter=0;" edge="1" parent="FxuVqMgDtMSCdMD-zuut-1" source="FxuVqMgDtMSCdMD-zuut-5" target="FxuVqMgDtMSCdMD-zuut-51">
          <mxGeometry relative="1" as="geometry">
            <Array as="points">
              <mxPoint x="70" y="580" />
            </Array>
          </mxGeometry>
        </mxCell>
        <mxCell id="FxuVqMgDtMSCdMD-zuut-5" value="login" style="ellipse;whiteSpace=wrap;html=1;" vertex="1" parent="FxuVqMgDtMSCdMD-zuut-1">
          <mxGeometry x="46" y="400" width="73" height="39" as="geometry" />
        </mxCell>
        <mxCell id="FxuVqMgDtMSCdMD-zuut-6" value="mencatat&lt;div&gt;pemasukan&lt;/div&gt;" style="ellipse;whiteSpace=wrap;html=1;" vertex="1" parent="FxuVqMgDtMSCdMD-zuut-1">
          <mxGeometry x="130" y="205" width="120" height="50" as="geometry" />
        </mxCell>
        <mxCell id="FxuVqMgDtMSCdMD-zuut-7" value="" style="endArrow=none;dashed=1;html=1;rounded=1;exitX=0.5;exitY=1;exitDx=0;exitDy=0;entryX=0.5;entryY=0;entryDx=0;entryDy=0;startArrow=classic;startFill=1;curved=0;" edge="1" parent="FxuVqMgDtMSCdMD-zuut-1" source="FxuVqMgDtMSCdMD-zuut-6" target="FxuVqMgDtMSCdMD-zuut-5">
          <mxGeometry width="50" height="50" relative="1" as="geometry">
            <mxPoint x="169.36" y="303.7500000000001" as="sourcePoint" />
            <mxPoint x="169.63999999999993" y="207.3499999999999" as="targetPoint" />
            <Array as="points">
              <mxPoint x="83" y="290" />
            </Array>
          </mxGeometry>
        </mxCell>
        <mxCell id="FxuVqMgDtMSCdMD-zuut-8" value="&amp;lt;&amp;lt;include&amp;gt;&amp;gt;" style="text;html=1;align=center;verticalAlign=middle;whiteSpace=wrap;rounded=0;fontSize=8;" vertex="1" parent="FxuVqMgDtMSCdMD-zuut-1">
          <mxGeometry x="114" y="255" width="60" height="10" as="geometry" />
        </mxCell>
        <mxCell id="FxuVqMgDtMSCdMD-zuut-23" value="Aplikasi Web&amp;nbsp;&lt;div&gt;Iuran Komite Kelas B3&lt;/div&gt;" style="text;html=1;align=center;verticalAlign=middle;whiteSpace=wrap;rounded=1;fillColor=#dae8fc;strokeColor=#6c8ebf;fillStyle=solid;gradientColor=none;perimeterSpacing=0;strokeWidth=1;spacingTop=1;spacingBottom=1;" vertex="1" parent="FxuVqMgDtMSCdMD-zuut-1">
          <mxGeometry x="180" y="6" width="292" height="30" as="geometry" />
        </mxCell>
        <mxCell id="FxuVqMgDtMSCdMD-zuut-33" value="melihat data pembayaran siswa" style="ellipse;whiteSpace=wrap;html=1;" vertex="1" parent="FxuVqMgDtMSCdMD-zuut-1">
          <mxGeometry x="440" y="270" width="120" height="50" as="geometry" />
        </mxCell>
        <mxCell id="FxuVqMgDtMSCdMD-zuut-34" value="melihat catatan keluar/masuk" style="ellipse;whiteSpace=wrap;html=1;" vertex="1" parent="FxuVqMgDtMSCdMD-zuut-1">
          <mxGeometry x="444" y="342" width="120" height="50" as="geometry" />
        </mxCell>
        <mxCell id="FxuVqMgDtMSCdMD-zuut-36" value="orang tua siswa" style="shape=umlActor;verticalLabelPosition=bottom;verticalAlign=top;html=1;outlineConnect=0;" vertex="1" parent="FxuVqMgDtMSCdMD-zuut-1">
          <mxGeometry x="718" y="353" width="30" height="60" as="geometry" />
        </mxCell>
        <mxCell id="FxuVqMgDtMSCdMD-zuut-37" value="" style="endArrow=none;html=1;rounded=1;entryX=0.5;entryY=0;entryDx=0;entryDy=0;entryPerimeter=0;exitX=1;exitY=0.5;exitDx=0;exitDy=0;curved=0;" edge="1" parent="FxuVqMgDtMSCdMD-zuut-1" source="FxuVqMgDtMSCdMD-zuut-33" target="FxuVqMgDtMSCdMD-zuut-36">
          <mxGeometry width="50" height="50" relative="1" as="geometry">
            <mxPoint x="510" y="475" as="sourcePoint" />
            <mxPoint x="560" y="425" as="targetPoint" />
            <Array as="points">
              <mxPoint x="733" y="295" />
            </Array>
          </mxGeometry>
        </mxCell>
        <mxCell id="FxuVqMgDtMSCdMD-zuut-38" value="" style="endArrow=none;html=1;rounded=1;curved=0;exitX=1;exitY=0.5;exitDx=0;exitDy=0;entryX=0.218;entryY=0.242;entryDx=0;entryDy=0;entryPerimeter=0;" edge="1" parent="FxuVqMgDtMSCdMD-zuut-1" source="FxuVqMgDtMSCdMD-zuut-34" target="FxuVqMgDtMSCdMD-zuut-36">
          <mxGeometry width="50" height="50" relative="1" as="geometry">
            <mxPoint x="640" y="355" as="sourcePoint" />
            <mxPoint x="710" y="367" as="targetPoint" />
            <Array as="points" />
          </mxGeometry>
        </mxCell>
        <mxCell id="FxuVqMgDtMSCdMD-zuut-43" value="mencatat pengeluaran" style="ellipse;whiteSpace=wrap;html=1;" vertex="1" parent="FxuVqMgDtMSCdMD-zuut-1">
          <mxGeometry x="119" y="489" width="101" height="50" as="geometry" />
        </mxCell>
        <mxCell id="FxuVqMgDtMSCdMD-zuut-44" style="edgeStyle=none;curved=0;rounded=1;orthogonalLoop=1;jettySize=auto;html=1;entryX=0.5;entryY=0;entryDx=0;entryDy=0;fontSize=12;startSize=8;endSize=8;dashed=1;exitX=0.454;exitY=1.052;exitDx=0;exitDy=0;exitPerimeter=0;" edge="1" parent="FxuVqMgDtMSCdMD-zuut-1" source="FxuVqMgDtMSCdMD-zuut-5" target="FxuVqMgDtMSCdMD-zuut-43">
          <mxGeometry relative="1" as="geometry">
            <Array as="points">
              <mxPoint x="81" y="468" />
              <mxPoint x="170" y="470" />
            </Array>
          </mxGeometry>
        </mxCell>
        <mxCell id="FxuVqMgDtMSCdMD-zuut-49" value="&amp;lt;&amp;lt;include&amp;gt;&amp;gt;" style="text;html=1;align=center;verticalAlign=middle;whiteSpace=wrap;rounded=0;fontSize=8;" vertex="1" parent="FxuVqMgDtMSCdMD-zuut-1">
          <mxGeometry x="76" y="455" width="60" height="10" as="geometry" />
        </mxCell>
        <mxCell id="FxuVqMgDtMSCdMD-zuut-51" value="cetak laporan" style="ellipse;whiteSpace=wrap;html=1;" vertex="1" parent="FxuVqMgDtMSCdMD-zuut-1">
          <mxGeometry x="119" y="550" width="101" height="50" as="geometry" />
        </mxCell>
        <mxCell id="FxuVqMgDtMSCdMD-zuut-58" value="&amp;lt;&amp;lt;include&amp;gt;&amp;gt;" style="text;html=1;align=center;verticalAlign=middle;whiteSpace=wrap;rounded=0;fontSize=8;" vertex="1" parent="FxuVqMgDtMSCdMD-zuut-1">
          <mxGeometry x="62" y="565" width="60" height="10" as="geometry" />
        </mxCell>
        <mxCell id="FxuVqMgDtMSCdMD-zuut-63" style="edgeStyle=orthogonalEdgeStyle;rounded=1;orthogonalLoop=1;jettySize=auto;html=1;exitX=1;exitY=0.3333333333333333;exitDx=0;exitDy=0;exitPerimeter=0;entryX=0;entryY=0.5;entryDx=0;entryDy=0;endArrow=none;endFill=0;curved=0;" edge="1" parent="1" source="FxuVqMgDtMSCdMD-zuut-60" target="FxuVqMgDtMSCdMD-zuut-6">
          <mxGeometry relative="1" as="geometry" />
        </mxCell>
        <mxCell id="FxuVqMgDtMSCdMD-zuut-60" value="admin/bendahara" style="shape=umlActor;verticalLabelPosition=bottom;verticalAlign=top;html=1;outlineConnect=0;" vertex="1" parent="1">
          <mxGeometry x="330" y="560" width="30" height="60" as="geometry" />
        </mxCell>
      </root>
    </mxGraphModel>
  </diagram>
</mxfile>
